<svg xmlns="http://www.w3.org/2000/svg" width="1088" height="1536" class="svgbob"><style>.svgbob line, .svgbob path, .svgbob circle, .svgbob rect, .svgbob polygon {
    stroke: black;
    stroke-width: 2;
    stroke-opacity: 1;
    fill-opacity: 1;
    stroke-linecap: round;
    stroke-linejoin: miter;
}
.svgbob text {
    white-space: pre;
    fill: black;
    font-family: Iosevka Fixed, monospace;
    font-size: 14px;
}
.svgbob rect.backdrop {
    stroke: none;
    fill: white;
}
.svgbob .broken {
    stroke-dasharray: 8;
}
.svgbob .filled {
    fill: black;
}
.svgbob .bg_filled {
    fill: white;
    stroke-width: 1;
}
.svgbob .nofill {
    fill: white;
}
.svgbob .end_marked_arrow {
    marker-end: url(#arrow);
}
.svgbob .start_marked_arrow {
    marker-start: url(#arrow);
}
.svgbob .end_marked_diamond {
    marker-end: url(#diamond);
}
.svgbob .start_marked_diamond {
    marker-start: url(#diamond);
}
.svgbob .end_marked_circle {
    marker-end: url(#circle);
}
.svgbob .start_marked_circle {
    marker-start: url(#circle);
}
.svgbob .end_marked_open_circle {
    marker-end: url(#open_circle);
}
.svgbob .start_marked_open_circle {
    marker-start: url(#open_circle);
}
.svgbob .end_marked_big_open_circle {
    marker-end: url(#big_open_circle);
}
.svgbob .start_marked_big_open_circle {
    marker-start: url(#big_open_circle);
}<!--separator--></style><defs><marker id="arrow" viewBox="-2 -2 8 8" refX="4" refY="2" markerWidth="7" markerHeight="7" orient="auto-start-reverse"><polygon points="0,0 0,4 4,2 0,0"></polygon></marker><marker id="diamond" viewBox="-2 -2 8 8" refX="4" refY="2" markerWidth="7" markerHeight="7" orient="auto-start-reverse"><polygon points="0,2 2,0 4,2 2,4 0,2"></polygon></marker><marker id="circle" viewBox="0 0 8 8" refX="4" refY="4" markerWidth="7" markerHeight="7" orient="auto-start-reverse"><circle cx="4" cy="4" r="2" class="filled"></circle></marker><marker id="open_circle" viewBox="0 0 8 8" refX="4" refY="4" markerWidth="7" markerHeight="7" orient="auto-start-reverse"><circle cx="4" cy="4" r="2" class="bg_filled"></circle></marker><marker id="big_open_circle" viewBox="0 0 8 8" refX="4" refY="4" markerWidth="7" markerHeight="7" orient="auto-start-reverse"><circle cx="4" cy="4" r="3" class="bg_filled"></circle></marker></defs><rect class="backdrop" x="0" y="0" width="1088" height="1536"></rect><circle cx="56" cy="88" r="28" class="nofill"></circle><text x="210" y="12" >na</text><text x="274" y="12" >na</text><text x="330" y="12" >vss</text><text x="394" y="12" >vdd</text><text x="458" y="12" >rxd1</text><text x="522" y="12" >rxd0</text><text x="586" y="12" >rxerr</text><text x="658" y="12" >rxv</text><text x="722" y="12" >txv</text><text x="778" y="12" >txd0</text><text x="842" y="12" >txd1</text><text x="210" y="124" >38</text><text x="274" y="124" >37</text><text x="338" y="124" >36</text><text x="402" y="124" >35</text><text x="466" y="124" >34</text><text x="530" y="124" >33</text><text x="594" y="124" >32</text><text x="658" y="124" >31</text><text x="722" y="124" >30</text><text x="786" y="124" >29</text><text x="850" y="124" >28</text><text x="218" y="1404" >0</text><text x="282" y="1404" >1</text><text x="346" y="1404" >2</text><text x="410" y="1404" >3</text><text x="474" y="1404" >4</text><text x="538" y="1404" >5</text><text x="602" y="1404" >6</text><text x="666" y="1404" >7</text><text x="730" y="1404" >8</text><text x="794" y="1404" >9</text><text x="850" y="1404" >10</text><text x="650" y="204" >PHY3</text><text x="170" y="252" >39</text><text x="170" y="764" >47</text><text x="898" y="252" >27</text><text x="898" y="636" >21</text><text x="10" y="252" >txd1</text><text x="1042" y="252" >rxd1</text><text x="10" y="316" >txd0</text><text x="170" y="316" >40</text><text x="898" y="316" >26</text><text x="1042" y="316" >rxd0</text><text x="18" y="380" >vdd</text><text x="170" y="380" >41</text><text x="898" y="380" >25</text><text x="1042" y="380" >rxerr</text><text x="18" y="444" >vss</text><text x="170" y="444" >42</text><text x="826" y="444" >PHY2</text><text x="898" y="444" >24</text><text x="1042" y="444" >rxv</text><text x="18" y="508" >txv</text><text x="170" y="508" >43</text><text x="226" y="508" >PHY4</text><text x="898" y="508" >23</text><text x="1042" y="508" >txv</text><text x="18" y="572" >rxv</text><text x="170" y="572" >44</text><text x="898" y="572" >22</text><text x="1042" y="572" >txd0</text><text x="2" y="636" >rxerr</text><text x="170" y="636" >45</text><text x="1042" y="636" >txd1</text><text x="10" y="700" >rxd0</text><text x="170" y="700" >46</text><text x="898" y="700" >20</text><text x="1042" y="700" >vdd</text><text x="10" y="764" >rxd1</text><text x="898" y="764" >19</text><text x="1042" y="764" >vss</text><text x="26" y="828" >na</text><text x="170" y="828" >48</text><text x="898" y="828" >18</text><text x="1042" y="828" >na</text><text x="898" y="892" >17</text><text x="898" y="1276" >11</text><text x="26" y="892" >na</text><text x="170" y="892" >49</text><text x="1042" y="892" >rxd1</text><text x="26" y="956" >na</text><text x="170" y="956" >50</text><text x="898" y="956" >16</text><text x="1042" y="956" >rxd0</text><text x="26" y="1020" >na</text><text x="170" y="1020" >51</text><text x="898" y="1020" >15</text><text x="1042" y="1020" >rxerr</text><text x="26" y="1084" >na</text><text x="170" y="1084" >52</text><text x="826" y="1084" >PHY1</text><text x="898" y="1084" >14</text><text x="1042" y="1084" >rxv</text><text x="26" y="1148" >na</text><text x="170" y="1148" >53</text><text x="898" y="1148" >13</text><text x="1042" y="1148" >txv</text><text x="26" y="1212" >na</text><text x="170" y="1212" >54</text><text x="898" y="1212" >12</text><text x="1042" y="1212" >txd0</text><text x="26" y="1276" >na</text><text x="170" y="1276" >55</text><text x="1042" y="1276" >txd1</text><text x="650" y="1324" >PHY0</text><text x="210" y="1516" >clk</text><text x="266" y="1516" >rst</text><line x1="288" y1="1520" x2="296" y2="1520" class="solid"></line><text x="298" y="1516" >n</text><text x="338" y="1516" >vss</text><text x="402" y="1516" >vdd</text><text x="466" y="1516" >txd1</text><text x="530" y="1516" >txd0</text><text x="594" y="1516" >txv</text><text x="658" y="1516" >rxv</text><text x="714" y="1516" >rxerr</text><text x="778" y="1516" >rxd0</text><text x="850" y="1516" >rxd1</text><g><line x1="140" y1="40" x2="940" y2="40" class="solid"></line><line x1="140" y1="40" x2="72" y2="176" class="solid"></line><line x1="204" y1="40" x2="204" y2="104" class="solid"></line><line x1="236" y1="40" x2="236" y2="104" class="solid"></line><line x1="268" y1="40" x2="268" y2="104" class="solid"></line><line x1="300" y1="40" x2="300" y2="104" class="solid"></line><line x1="332" y1="40" x2="332" y2="104" class="solid"></line><line x1="364" y1="40" x2="364" y2="104" class="solid"></line><line x1="396" y1="40" x2="396" y2="104" class="solid"></line><line x1="428" y1="40" x2="428" y2="104" class="solid"></line><line x1="460" y1="40" x2="460" y2="104" class="solid"></line><line x1="492" y1="40" x2="492" y2="104" class="solid"></line><line x1="524" y1="40" x2="524" y2="104" class="solid"></line><line x1="556" y1="40" x2="556" y2="104" class="solid"></line><line x1="588" y1="40" x2="588" y2="104" class="solid"></line><line x1="620" y1="40" x2="620" y2="104" class="solid"></line><line x1="652" y1="40" x2="652" y2="104" class="solid"></line><line x1="684" y1="40" x2="684" y2="104" class="solid"></line><line x1="716" y1="40" x2="716" y2="104" class="solid"></line><line x1="748" y1="40" x2="748" y2="104" class="solid"></line><line x1="780" y1="40" x2="780" y2="104" class="solid"></line><line x1="812" y1="40" x2="812" y2="104" class="solid"></line><line x1="844" y1="40" x2="844" y2="104" class="solid"></line><line x1="876" y1="40" x2="876" y2="104" class="solid"></line><line x1="940" y1="40" x2="1008" y2="176" class="solid"></line><line x1="204" y1="104" x2="236" y2="104" class="solid"></line><line x1="268" y1="104" x2="300" y2="104" class="solid"></line><line x1="332" y1="104" x2="364" y2="104" class="solid"></line><line x1="396" y1="104" x2="428" y2="104" class="solid"></line><line x1="460" y1="104" x2="492" y2="104" class="solid"></line><line x1="524" y1="104" x2="556" y2="104" class="solid"></line><line x1="588" y1="104" x2="620" y2="104" class="solid"></line><line x1="652" y1="104" x2="684" y2="104" class="solid"></line><line x1="716" y1="104" x2="748" y2="104" class="solid"></line><line x1="780" y1="104" x2="812" y2="104" class="solid"></line><line x1="844" y1="104" x2="876" y2="104" class="solid"></line><line x1="72" y1="176" x2="60" y2="200" class="solid"></line><line x1="1008" y1="176" x2="1020" y2="200" class="solid"></line><line x1="60" y1="200" x2="60" y2="1320" class="solid"></line><line x1="1020" y1="200" x2="1020" y2="1320" class="solid"></line><line x1="60" y1="232" x2="156" y2="232" class="solid"></line><line x1="156" y1="232" x2="156" y2="264" class="solid"></line><line x1="924" y1="232" x2="1020" y2="232" class="solid"></line><line x1="924" y1="232" x2="924" y2="264" class="solid"></line><line x1="60" y1="264" x2="156" y2="264" class="solid"></line><line x1="924" y1="264" x2="1020" y2="264" class="solid"></line><line x1="60" y1="296" x2="156" y2="296" class="solid"></line><line x1="156" y1="296" x2="156" y2="328" class="solid"></line><line x1="924" y1="296" x2="1020" y2="296" class="solid"></line><line x1="924" y1="296" x2="924" y2="328" class="solid"></line><line x1="60" y1="328" x2="156" y2="328" class="solid"></line><line x1="924" y1="328" x2="1020" y2="328" class="solid"></line><line x1="60" y1="360" x2="156" y2="360" class="solid"></line><line x1="156" y1="360" x2="156" y2="392" class="solid"></line><line x1="924" y1="360" x2="1020" y2="360" class="solid"></line><line x1="924" y1="360" x2="924" y2="392" class="solid"></line><line x1="60" y1="392" x2="156" y2="392" class="solid"></line><line x1="924" y1="392" x2="1020" y2="392" class="solid"></line><line x1="60" y1="424" x2="156" y2="424" class="solid"></line><line x1="156" y1="424" x2="156" y2="456" class="solid"></line><line x1="924" y1="424" x2="1020" y2="424" class="solid"></line><line x1="924" y1="424" x2="924" y2="456" class="solid"></line><line x1="60" y1="456" x2="156" y2="456" class="solid"></line><line x1="924" y1="456" x2="1020" y2="456" class="solid"></line><line x1="60" y1="488" x2="156" y2="488" class="solid"></line><line x1="156" y1="488" x2="156" y2="520" class="solid"></line><line x1="924" y1="488" x2="1020" y2="488" class="solid"></line><line x1="924" y1="488" x2="924" y2="520" class="solid"></line><line x1="60" y1="520" x2="156" y2="520" class="solid"></line><line x1="924" y1="520" x2="1020" y2="520" class="solid"></line><line x1="60" y1="552" x2="156" y2="552" class="solid"></line><line x1="156" y1="552" x2="156" y2="584" class="solid"></line><line x1="924" y1="552" x2="1020" y2="552" class="solid"></line><line x1="924" y1="552" x2="924" y2="584" class="solid"></line><line x1="60" y1="584" x2="156" y2="584" class="solid"></line><line x1="924" y1="584" x2="1020" y2="584" class="solid"></line><line x1="60" y1="616" x2="156" y2="616" class="solid"></line><line x1="156" y1="616" x2="156" y2="648" class="solid"></line><line x1="924" y1="616" x2="1020" y2="616" class="solid"></line><line x1="924" y1="616" x2="924" y2="648" class="solid"></line><line x1="60" y1="648" x2="156" y2="648" class="solid"></line><line x1="924" y1="648" x2="1020" y2="648" class="solid"></line><line x1="60" y1="680" x2="156" y2="680" class="solid"></line><line x1="156" y1="680" x2="156" y2="712" class="solid"></line><line x1="924" y1="680" x2="1020" y2="680" class="solid"></line><line x1="924" y1="680" x2="924" y2="712" class="solid"></line><line x1="60" y1="712" x2="156" y2="712" class="solid"></line><line x1="924" y1="712" x2="1020" y2="712" class="solid"></line><line x1="60" y1="744" x2="156" y2="744" class="solid"></line><line x1="156" y1="744" x2="156" y2="776" class="solid"></line><line x1="924" y1="744" x2="1020" y2="744" class="solid"></line><line x1="924" y1="744" x2="924" y2="776" class="solid"></line><line x1="60" y1="776" x2="156" y2="776" class="solid"></line><line x1="924" y1="776" x2="1020" y2="776" class="solid"></line><line x1="60" y1="808" x2="156" y2="808" class="solid"></line><line x1="156" y1="808" x2="156" y2="840" class="solid"></line><line x1="924" y1="808" x2="1020" y2="808" class="solid"></line><line x1="924" y1="808" x2="924" y2="840" class="solid"></line><line x1="60" y1="840" x2="156" y2="840" class="solid"></line><line x1="924" y1="840" x2="1020" y2="840" class="solid"></line><line x1="60" y1="872" x2="156" y2="872" class="solid"></line><line x1="156" y1="872" x2="156" y2="904" class="solid"></line><line x1="924" y1="872" x2="1020" y2="872" class="solid"></line><line x1="924" y1="872" x2="924" y2="904" class="solid"></line><line x1="60" y1="904" x2="156" y2="904" class="solid"></line><line x1="924" y1="904" x2="1020" y2="904" class="solid"></line><line x1="60" y1="936" x2="156" y2="936" class="solid"></line><line x1="156" y1="936" x2="156" y2="968" class="solid"></line><line x1="924" y1="936" x2="1020" y2="936" class="solid"></line><line x1="924" y1="936" x2="924" y2="968" class="solid"></line><line x1="60" y1="968" x2="156" y2="968" class="solid"></line><line x1="924" y1="968" x2="1020" y2="968" class="solid"></line><line x1="60" y1="1000" x2="156" y2="1000" class="solid"></line><line x1="156" y1="1000" x2="156" y2="1032" class="solid"></line><line x1="924" y1="1000" x2="1020" y2="1000" class="solid"></line><line x1="924" y1="1000" x2="924" y2="1032" class="solid"></line><line x1="60" y1="1032" x2="156" y2="1032" class="solid"></line><line x1="924" y1="1032" x2="1020" y2="1032" class="solid"></line><line x1="60" y1="1064" x2="156" y2="1064" class="solid"></line><line x1="156" y1="1064" x2="156" y2="1096" class="solid"></line><line x1="924" y1="1064" x2="1020" y2="1064" class="solid"></line><line x1="924" y1="1064" x2="924" y2="1096" class="solid"></line><line x1="60" y1="1096" x2="156" y2="1096" class="solid"></line><line x1="924" y1="1096" x2="1020" y2="1096" class="solid"></line><line x1="60" y1="1128" x2="156" y2="1128" class="solid"></line><line x1="156" y1="1128" x2="156" y2="1160" class="solid"></line><line x1="924" y1="1128" x2="1020" y2="1128" class="solid"></line><line x1="924" y1="1128" x2="924" y2="1160" class="solid"></line><line x1="60" y1="1160" x2="156" y2="1160" class="solid"></line><line x1="924" y1="1160" x2="1020" y2="1160" class="solid"></line><line x1="60" y1="1192" x2="156" y2="1192" class="solid"></line><line x1="156" y1="1192" x2="156" y2="1224" class="solid"></line><line x1="924" y1="1192" x2="1020" y2="1192" class="solid"></line><line x1="924" y1="1192" x2="924" y2="1224" class="solid"></line><line x1="60" y1="1224" x2="156" y2="1224" class="solid"></line><line x1="924" y1="1224" x2="1020" y2="1224" class="solid"></line><line x1="60" y1="1256" x2="156" y2="1256" class="solid"></line><line x1="156" y1="1256" x2="156" y2="1288" class="solid"></line><line x1="924" y1="1256" x2="1020" y2="1256" class="solid"></line><line x1="924" y1="1256" x2="924" y2="1288" class="solid"></line><line x1="60" y1="1288" x2="156" y2="1288" class="solid"></line><line x1="924" y1="1288" x2="1020" y2="1288" class="solid"></line><line x1="60" y1="1320" x2="128" y2="1456" class="solid"></line><line x1="1020" y1="1320" x2="952" y2="1456" class="solid"></line><line x1="128" y1="1456" x2="140" y2="1480" class="solid"></line><line x1="952" y1="1456" x2="940" y2="1480" class="solid"></line><line x1="204" y1="1416" x2="236" y2="1416" class="solid"></line><line x1="204" y1="1416" x2="204" y2="1480" class="solid"></line><line x1="236" y1="1416" x2="236" y2="1480" class="solid"></line><line x1="268" y1="1416" x2="300" y2="1416" class="solid"></line><line x1="268" y1="1416" x2="268" y2="1480" class="solid"></line><line x1="300" y1="1416" x2="300" y2="1480" class="solid"></line><line x1="332" y1="1416" x2="364" y2="1416" class="solid"></line><line x1="332" y1="1416" x2="332" y2="1480" class="solid"></line><line x1="364" y1="1416" x2="364" y2="1480" class="solid"></line><line x1="396" y1="1416" x2="428" y2="1416" class="solid"></line><line x1="396" y1="1416" x2="396" y2="1480" class="solid"></line><line x1="428" y1="1416" x2="428" y2="1480" class="solid"></line><line x1="460" y1="1416" x2="492" y2="1416" class="solid"></line><line x1="460" y1="1416" x2="460" y2="1480" class="solid"></line><line x1="492" y1="1416" x2="492" y2="1480" class="solid"></line><line x1="524" y1="1416" x2="556" y2="1416" class="solid"></line><line x1="524" y1="1416" x2="524" y2="1480" class="solid"></line><line x1="556" y1="1416" x2="556" y2="1480" class="solid"></line><line x1="588" y1="1416" x2="620" y2="1416" class="solid"></line><line x1="588" y1="1416" x2="588" y2="1480" class="solid"></line><line x1="620" y1="1416" x2="620" y2="1480" class="solid"></line><line x1="652" y1="1416" x2="684" y2="1416" class="solid"></line><line x1="652" y1="1416" x2="652" y2="1480" class="solid"></line><line x1="684" y1="1416" x2="684" y2="1480" class="solid"></line><line x1="716" y1="1416" x2="748" y2="1416" class="solid"></line><line x1="716" y1="1416" x2="716" y2="1480" class="solid"></line><line x1="748" y1="1416" x2="748" y2="1480" class="solid"></line><line x1="780" y1="1416" x2="812" y2="1416" class="solid"></line><line x1="780" y1="1416" x2="780" y2="1480" class="solid"></line><line x1="812" y1="1416" x2="812" y2="1480" class="solid"></line><line x1="844" y1="1416" x2="876" y2="1416" class="solid"></line><line x1="844" y1="1416" x2="844" y2="1480" class="solid"></line><line x1="876" y1="1416" x2="876" y2="1480" class="solid"></line><line x1="140" y1="1480" x2="940" y2="1480" class="solid"></line></g><g><line x1="460" y1="128" x2="460" y2="152" class="solid"></line><line x1="876" y1="128" x2="876" y2="152" class="solid"></line><line x1="460" y1="152" x2="876" y2="152" class="solid"></line><line x1="668" y1="152" x2="668" y2="176" class="solid"></line></g><g><line x1="184" y1="232" x2="196" y2="232" class="solid"></line><line x1="196" y1="232" x2="196" y2="776" class="solid"></line><line x1="196" y1="504" x2="208" y2="504" class="solid"></line><line x1="184" y1="776" x2="196" y2="776" class="solid"></line></g><g><line x1="884" y1="232" x2="896" y2="232" class="solid"></line><line x1="884" y1="232" x2="884" y2="648" class="solid"></line><line x1="872" y1="440" x2="884" y2="440" class="solid"></line><line x1="884" y1="648" x2="896" y2="648" class="solid"></line></g><g><line x1="884" y1="872" x2="896" y2="872" class="solid"></line><line x1="884" y1="872" x2="884" y2="1288" class="solid"></line><line x1="872" y1="1080" x2="884" y2="1080" class="solid"></line><line x1="884" y1="1288" x2="896" y2="1288" class="solid"></line></g><g><line x1="668" y1="1344" x2="668" y2="1368" class="solid"></line><line x1="460" y1="1368" x2="876" y2="1368" class="solid"></line><line x1="460" y1="1368" x2="460" y2="1392" class="solid"></line><line x1="876" y1="1368" x2="876" y2="1392" class="solid"></line></g></svg>